<svg width="332" height="58" fill="none" xmlns="http://www.w3.org/2000/svg"><g filter="url(#filter0_di_308_525)"><path d="M14.146 0h29.708L58 24.756 43.854 49.512H14.146L0 24.756 14.146 0z" fill="url(#paint0_linear_308_525)"/><path d="M.576 24.756L14.436.5h29.127l13.86 24.256-13.86 24.256H14.436L.576 24.756z" stroke="url(#paint1_linear_308_525)"/></g><mask id="a" style="mask-type:alpha" maskUnits="userSpaceOnUse" x="11" y="5" width="38" height="38"><path d="M24.94 7.453h0c-9.117 2.771-14.26 12.407-11.488 21.523h0c2.771 9.115 12.407 14.258 21.523 11.487h0C44.09 37.69 49.234 28.055 46.463 18.94h0C43.69 9.824 34.055 4.68 24.94 7.453z" stroke="#000" stroke-width="2.3"/></mask><g mask="url(#a)"><path d="M7.095 16.613l11.024-8.16 25.538 39.114-30.208 5.295-6.354-36.25z" fill="url(#paint2_linear_308_525)"/></g><mask id="b" style="mask-type:alpha" maskUnits="userSpaceOnUse" x="16" y="12" width="25" height="25"><path d="M39.18 21.237c-1.753-5.766-7.85-9.02-13.616-7.267-5.766 1.754-9.02 7.85-7.266 13.616 1.753 5.766 7.849 9.02 13.615 7.266 5.767-1.753 9.02-7.849 7.267-13.615z" stroke="#000" stroke-width="2.3"/></mask><g mask="url(#b)"><path d="M13.752 19.596l7.226-5.349L37.72 39.89l-19.802 3.47-4.166-23.763z" fill="url(#paint3_linear_308_525)"/></g><mask id="c" style="mask-type:alpha" maskUnits="userSpaceOnUse" x="16" y="9" width="29" height="29"><path d="M17.955 27.13c2.092 6.881 9.366 10.764 16.248 8.671 6.881-2.092 10.764-9.366 8.671-16.248-2.092-6.881-9.366-10.764-16.248-8.671-6.881 2.092-10.764 9.366-8.671 16.248z" stroke="#000" stroke-width="2.3"/></mask><g mask="url(#c)"><path d="M48.024 28.999l-8.491 6.285-19.67-30.127L43.13 1.078 48.024 29z" fill="url(#paint4_linear_308_525)"/></g><path d="M83.768 13.6c3.2 0 5.643.587 7.328 1.76 1.707 1.173 2.56 2.965 2.56 5.376 0 3.008-1.482 5.045-4.448 6.112.406.49.864 1.088 1.376 1.792a47.549 47.549 0 011.568 2.304c.534.81 1.046 1.653 1.536 2.528.491.853.928 1.696 1.312 2.528h-4.512a42.14 42.14 0 00-1.312-2.304 45.187 45.187 0 00-1.44-2.272 34.57 34.57 0 00-1.408-2.08 42.245 42.245 0 00-1.312-1.76 11.19 11.19 0 01-.768.032h-2.56V36h-4.032V14.144a20.257 20.257 0 013.136-.416 39.232 39.232 0 012.976-.128zm.288 3.488c-.853 0-1.642.032-2.368.096v7.168h1.76c.982 0 1.846-.053 2.592-.16.747-.107 1.366-.299 1.856-.576a2.78 2.78 0 001.152-1.12c.256-.47.384-1.067.384-1.792 0-.683-.128-1.259-.384-1.728a2.827 2.827 0 00-1.12-1.12c-.469-.277-1.034-.47-1.696-.576a11.471 11.471 0 00-2.176-.192zm27.605 18.4c-.747.192-1.718.384-2.912.576-1.195.213-2.507.32-3.936.32-1.344 0-2.475-.192-3.392-.576-.896-.384-1.622-.917-2.176-1.6-.534-.683-.918-1.493-1.152-2.432-.235-.96-.352-2.005-.352-3.136v-9.376h3.872v8.768c0 1.792.256 3.072.768 3.84.533.768 1.45 1.152 2.752 1.152.469 0 .96-.021 1.472-.064.533-.043.928-.096 1.184-.16V19.264h3.872v16.224z" fill="#fff"/><path d="M120.077 24.896c0 1.216.149 2.325.448 3.328.299.981.725 1.824 1.28 2.528a6.111 6.111 0 002.08 1.6c.811.384 1.728.576 2.752.576 1.003 0 1.909-.192 2.72-.576a5.803 5.803 0 002.048-1.6c.576-.704 1.013-1.547 1.312-2.528.299-1.003.448-2.112.448-3.328 0-1.216-.149-2.315-.448-3.296-.299-1.003-.736-1.845-1.312-2.528a5.655 5.655 0 00-2.048-1.632c-.811-.384-1.717-.576-2.72-.576-1.024 0-1.941.192-2.752.576a5.946 5.946 0 00-2.08 1.632c-.555.704-.981 1.547-1.28 2.528-.299.981-.448 2.08-.448 3.296zm17.312 0c0 1.899-.288 3.573-.864 5.024-.555 1.45-1.323 2.667-2.304 3.648a9.456 9.456 0 01-3.392 2.176 11.69 11.69 0 01-4.16.736c-1.472 0-2.869-.245-4.192-.736a9.77 9.77 0 01-3.424-2.176c-.96-.981-1.728-2.197-2.304-3.648-.576-1.45-.864-3.125-.864-5.024s.288-3.563.864-4.992c.576-1.45 1.355-2.667 2.336-3.648a9.877 9.877 0 013.456-2.208 11.599 11.599 0 014.128-.736c1.451 0 2.827.245 4.128.736a9.255 9.255 0 013.392 2.208c.981.981 1.76 2.197 2.336 3.648.576 1.43.864 3.093.864 4.992zm15.335 2.688c0-1.643-.33-2.944-.992-3.904-.64-.96-1.664-1.44-3.072-1.44a5.73 5.73 0 00-1.824.288c-.554.192-1.002.405-1.344.64V32.8c.278.064.63.128 1.056.192.448.043.982.064 1.6.064 1.43 0 2.55-.48 3.36-1.44.811-.981 1.216-2.325 1.216-4.032zm3.968.064c0 1.344-.202 2.56-.608 3.648a7.565 7.565 0 01-1.696 2.752 7.14 7.14 0 01-2.656 1.76c-1.045.405-2.229.608-3.552.608-1.28 0-2.506-.096-3.68-.288-1.152-.192-2.112-.405-2.88-.64v-23.68l3.872-.64v8.672a9.3 9.3 0 011.632-.64 7.788 7.788 0 012.176-.288c1.174 0 2.219.213 3.136.64a5.996 5.996 0 012.336 1.76c.619.768 1.088 1.696 1.408 2.784.342 1.067.512 2.25.512 3.552zm19.127-.032c0 1.323-.192 2.528-.576 3.616-.384 1.088-.928 2.016-1.632 2.784a7.309 7.309 0 01-2.56 1.792c-.982.427-2.07.64-3.264.64-1.195 0-2.283-.213-3.264-.64a7.37 7.37 0 01-2.528-1.792c-.704-.768-1.259-1.696-1.664-2.784-.384-1.088-.576-2.293-.576-3.616s.192-2.517.576-3.584c.405-1.088.96-2.016 1.664-2.784a7.321 7.321 0 012.56-1.76c.981-.427 2.058-.64 3.232-.64 1.173 0 2.25.213 3.232.64a6.965 6.965 0 012.56 1.76c.704.768 1.248 1.696 1.632 2.784.405 1.067.608 2.261.608 3.584zm-3.968 0c0-1.664-.363-2.976-1.088-3.936-.704-.981-1.696-1.472-2.976-1.472s-2.283.49-3.008 1.472c-.704.96-1.056 2.272-1.056 3.936 0 1.685.352 3.019 1.056 4 .725.981 1.728 1.472 3.008 1.472s2.272-.49 2.976-1.472c.725-.981 1.088-2.315 1.088-4zm17.493-4.864c-.32-.107-.768-.213-1.344-.32-.555-.128-1.206-.192-1.952-.192-.427 0-.886.043-1.376.128-.47.085-.8.16-.992.224V36h-3.872V20.064c.746-.277 1.674-.533 2.784-.768 1.13-.256 2.378-.384 3.744-.384.256 0 .554.021.896.064a8.41 8.41 0 011.024.128c.341.043.672.107.992.192.32.064.576.128.768.192l-.672 3.264zm17.098 12.736c-.747.192-1.717.384-2.912.576-1.195.213-2.507.32-3.936.32-1.344 0-2.475-.192-3.392-.576-.896-.384-1.621-.917-2.176-1.6-.533-.683-.917-1.493-1.152-2.432-.235-.96-.352-2.005-.352-3.136v-9.376h3.872v8.768c0 1.792.256 3.072.768 3.84.533.768 1.451 1.152 2.752 1.152.469 0 .96-.021 1.472-.064.533-.043.928-.096 1.184-.16V19.264h3.872v16.224zm7.968-7.904c0 1.707.406 3.05 1.216 4.032.811.96 1.931 1.44 3.36 1.44.619 0 1.142-.021 1.568-.064.448-.064.811-.128 1.088-.192v-9.6c-.341-.235-.8-.448-1.376-.64a4.947 4.947 0 00-1.792-.32c-1.408 0-2.442.48-3.104 1.44-.64.96-.96 2.261-.96 3.904zm11.104 7.904c-.768.235-1.738.448-2.912.64a22.18 22.18 0 01-3.648.288c-1.322 0-2.506-.203-3.552-.608a7.674 7.674 0 01-2.688-1.728c-.725-.768-1.29-1.685-1.696-2.752-.384-1.088-.576-2.304-.576-3.648 0-1.323.16-2.517.48-3.584.342-1.088.832-2.016 1.472-2.784a6.334 6.334 0 012.336-1.76c.918-.427 1.974-.64 3.168-.64.811 0 1.526.096 2.144.288a9.578 9.578 0 011.6.64v-8.032l3.872-.64v24.32zm20.055-7.872c0 1.323-.192 2.528-.576 3.616-.384 1.088-.928 2.016-1.632 2.784a7.309 7.309 0 01-2.56 1.792c-.982.427-2.07.64-3.264.64-1.195 0-2.283-.213-3.264-.64a7.37 7.37 0 01-2.528-1.792c-.704-.768-1.259-1.696-1.664-2.784-.384-1.088-.576-2.293-.576-3.616s.192-2.517.576-3.584c.405-1.088.96-2.016 1.664-2.784a7.321 7.321 0 012.56-1.76c.981-.427 2.058-.64 3.232-.64 1.173 0 2.25.213 3.232.64a6.965 6.965 0 012.56 1.76c.704.768 1.248 1.696 1.632 2.784.405 1.067.608 2.261.608 3.584zm-3.968 0c0-1.664-.363-2.976-1.088-3.936-.704-.981-1.696-1.472-2.976-1.472s-2.283.49-3.008 1.472c-.704.96-1.056 2.272-1.056 3.936 0 1.685.352 3.019 1.056 4 .725.981 1.728 1.472 3.008 1.472s2.272-.49 2.976-1.472c.725-.981 1.088-2.315 1.088-4zM253.471 36c-1.067-2.197-2.166-4.715-3.296-7.552a100.437 100.437 0 01-3.04-9.184h4.128c.234.939.501 1.952.8 3.04.32 1.067.65 2.144.992 3.232.362 1.067.725 2.112 1.088 3.136.384 1.003.736 1.91 1.056 2.72.32-.81.661-1.717 1.024-2.72.362-1.024.714-2.07 1.056-3.136.362-1.088.704-2.165 1.024-3.232a77.52 77.52 0 00.832-3.04h4a94.844 94.844 0 01-3.072 9.184c-1.11 2.837-2.198 5.355-3.264 7.552h-3.328zm18.444-2.72c1.194 0 2.101-.064 2.72-.192V28.8a7.574 7.574 0 00-.928-.192 9.27 9.27 0 00-2.656 0 4.231 4.231 0 00-1.184.352c-.342.17-.619.416-.832.736-.214.299-.32.683-.32 1.152 0 .917.288 1.557.864 1.92.576.341 1.354.512 2.336.512zm-.32-14.432c1.28 0 2.357.16 3.232.48.874.32 1.568.768 2.08 1.344.533.576.906 1.28 1.12 2.112.234.81.352 1.707.352 2.688v10.144c-.598.128-1.504.277-2.72.448-1.195.192-2.55.288-4.064.288-1.003 0-1.92-.096-2.752-.288-.832-.192-1.547-.501-2.144-.928a4.578 4.578 0 01-1.376-1.664c-.32-.683-.48-1.525-.48-2.528 0-.96.181-1.77.544-2.432a4.598 4.598 0 011.536-1.6 6.171 6.171 0 012.208-.896 12.055 12.055 0 012.655-.288c.427 0 .875.032 1.345.096.469.043.97.128 1.504.256v-.64a5.04 5.04 0 00-.16-1.28 2.445 2.445 0 00-.576-1.056c-.256-.32-.608-.565-1.056-.736-.427-.17-.971-.256-1.632-.256-.896 0-1.718.064-2.464.192-.747.128-1.355.277-1.824.448l-.48-3.136c.49-.17 1.205-.341 2.144-.512.938-.17 1.941-.256 3.008-.256zm11.525.96c.747-.213 1.718-.416 2.912-.608 1.195-.192 2.518-.288 3.968-.288 1.366 0 2.507.192 3.424.576.918.363 1.643.885 2.176 1.568.555.661.939 1.472 1.152 2.432.235.939.352 1.973.352 3.104V36h-3.872v-8.8c0-.896-.064-1.653-.192-2.272-.106-.64-.298-1.152-.576-1.536a2.09 2.09 0 00-1.088-.864c-.448-.192-1.002-.288-1.664-.288-.49 0-1.002.032-1.536.096-.533.064-.928.117-1.184.16V36h-3.872V19.808zM305.743 36h-3.872V19.264h3.872V36zm.416-21.632c0 .725-.235 1.301-.704 1.728a2.391 2.391 0 01-1.664.64c-.661 0-1.227-.213-1.696-.64-.469-.427-.704-1.003-.704-1.728 0-.747.235-1.333.704-1.76.469-.427 1.035-.64 1.696-.64.64 0 1.195.213 1.664.64.469.427.704 1.013.704 1.76zm3.596 13.344c0-1.472.213-2.763.64-3.872.448-1.11 1.034-2.027 1.76-2.752a6.927 6.927 0 012.496-1.664 7.537 7.537 0 012.88-.576c2.304 0 4.096.715 5.376 2.144 1.301 1.43 1.952 3.563 1.952 6.4a9.9 9.9 0 01-.032.736c0 .256-.011.49-.032.704h-11.04c.106 1.344.576 2.39 1.408 3.136.853.725 2.08 1.088 3.68 1.088.938 0 1.792-.085 2.56-.256.789-.17 1.408-.352 1.856-.544l.512 3.168a7.183 7.183 0 01-.896.352c-.363.107-.79.203-1.28.288-.47.107-.982.192-1.536.256a14.79 14.79 0 01-1.696.096c-1.472 0-2.752-.213-3.84-.64-1.088-.448-1.984-1.056-2.688-1.824a7.646 7.646 0 01-1.568-2.752c-.342-1.067-.512-2.23-.512-3.488zm11.232-1.728c0-.533-.075-1.035-.224-1.504a3.364 3.364 0 00-.672-1.248 2.712 2.712 0 00-1.056-.832c-.406-.213-.896-.32-1.472-.32-.598 0-1.12.117-1.568.352a3.557 3.557 0 00-1.152.864 4.184 4.184 0 00-.704 1.248 6.74 6.74 0 00-.352 1.44h7.2z" fill="url(#paint5_linear_308_525)"/><defs><linearGradient id="paint0_linear_308_525" x1="0" y1="18.39" x2="61.537" y2="21.927" gradientUnits="userSpaceOnUse"><stop stop-color="#DCA333"/><stop offset="1" stop-color="#FFCC47"/></linearGradient><linearGradient id="paint1_linear_308_525" x1="5.658" y1="2.122" x2="29" y2="49.512" gradientUnits="userSpaceOnUse"><stop/><stop offset="1" stop-color="silver" stop-opacity=".3"/></linearGradient><linearGradient id="paint2_linear_308_525" x1="2.237" y1="18.502" x2="49.241" y2="32.058" gradientUnits="userSpaceOnUse"><stop stop-color="#5A5A5A"/><stop offset="1" stop-color="#1E1E1E"/></linearGradient><linearGradient id="paint3_linear_308_525" x1="10.567" y1="20.835" x2="41.38" y2="29.722" gradientUnits="userSpaceOnUse"><stop stop-color="#5A5A5A"/><stop offset="1" stop-color="#1E1E1E"/></linearGradient><linearGradient id="paint4_linear_308_525" x1="51.766" y1="27.544" x2="15.562" y2="17.102" gradientUnits="userSpaceOnUse"><stop stop-color="#5A5A5A"/><stop offset="1" stop-color="#1E1E1E"/></linearGradient><linearGradient id="paint5_linear_308_525" x1="130.636" y1="25.304" x2="292.629" y2="31.13" gradientUnits="userSpaceOnUse"><stop stop-color="#FAB736"/><stop offset="1" stop-color="#FFCC47"/></linearGradient><filter id="filter0_di_308_525" x="-4" y="-6" width="70" height="63.512" filterUnits="userSpaceOnUse" color-interpolation-filters="sRGB"><feFlood flood-opacity="0" result="BackgroundImageFix"/><feColorMatrix in="SourceAlpha" values="0 0 0 0 0 0 0 0 0 0 0 0 0 0 0 0 0 0 127 0" result="hardAlpha"/><feOffset dx="4" dy="4"/><feGaussianBlur stdDeviation="2"/><feComposite in2="hardAlpha" operator="out"/><feColorMatrix values="0 0 0 0 0.258333 0 0 0 0 0.258333 0 0 0 0 0.258333 0 0 0 0.25 0"/><feBlend in2="BackgroundImageFix" result="effect1_dropShadow_308_525"/><feBlend in="SourceGraphic" in2="effect1_dropShadow_308_525" result="shape"/><feColorMatrix in="SourceAlpha" values="0 0 0 0 0 0 0 0 0 0 0 0 0 0 0 0 0 0 127 0" result="hardAlpha"/><feOffset dx="-4" dy="-6"/><feGaussianBlur stdDeviation="5"/><feComposite in2="hardAlpha" operator="arithmetic" k2="-1" k3="1"/><feColorMatrix values="0 0 0 0 1 0 0 0 0 1 0 0 0 0 1 0 0 0 1 0"/><feBlend in2="shape" result="effect2_innerShadow_308_525"/></filter></defs></svg>