<svg id="social.svg" xmlns="http://www.w3.org/2000/svg" width="435" height="155"><defs><linearGradient id="linear-gradient" x1="362" y1="153" x2="393" y2="122" gradientUnits="userSpaceOnUse"><stop offset="0" stop-color="#006add"/><stop offset="1" stop-color="#ff1981"/></linearGradient><linearGradient id="linear-gradient-2" x1="145.252" y1="122" x2="129.748" y2="153" gradientUnits="userSpaceOnUse"><stop offset="0" stop-color="#9e42b4"/><stop offset=".067" stop-color="#9e42b4"/><stop offset=".473" stop-color="#e5566f"/><stop offset="1" stop-color="#fdc76d"/></linearGradient><style>.cls-3{fill:#fff;fill-rule:evenodd}.cls-18{fill:#168de2}.cls-38{fill:#ff4500}</style></defs><path fill-opacity="0" fill="#fff" d="M0 0h435v155H0z"/><rect id="Rounded_Rectangle_147" data-name="Rounded Rectangle 147" x="122" y="82" width="31" height="31" rx="2" ry="2" fill="#46aade"/><path class="cls-3" d="M1024.01 448.989a3.992 3.992 0 114-3.992 4 4 0 01-4 3.992zm1.08-1.666c-.05.061-.06.235.07.181a2.711 2.711 0 00.41-.651.041.041 0 00.02.026.27.27 0 00.02-.126c.01-.01.02-.041.01-.009a.181.181 0 00-.02-.125.87.87 0 00-.15.21c-.1.13-.33.137-.27.356a.33.33 0 01-.03-.138.05.05 0 01-.05.03 1.572 1.572 0 01.07-.34.9.9 0 01-.07.138.148.148 0 00-.09.021.24.24 0 00.09.181h.01a.994.994 0 01-.02.246zm-1.08-5.253a2.989 2.989 0 00-.8.111 1.085 1.085 0 01-.18.132.423.423 0 00-.22.107.231.231 0 01-.07.209 1.554 1.554 0 00-.26.067 2.232 2.232 0 01-.24.367c.19.03-.04.171-.14.255a1.51 1.51 0 00-.23.29c-.05.064-.13.07-.17.131a1.474 1.474 0 00-.29.394 1.143 1.143 0 00-.15.466.926.926 0 00.27.948 1.254 1.254 0 00.42-.044.233.233 0 01.37.016c.08.14.16-.014.24.052a1.245 1.245 0 01.08.3c-.16.162.23.464.32.6a.842.842 0 01.14.393.35.35 0 00.09.461c.16.188.32.387.47.575a2.806 2.806 0 00.35.023c.06 0 .12-.006.19-.01a.523.523 0 00.23-.264c.02-.083.21-.107.16-.255s.07-.224.21-.3a.389.389 0 00.21-.447 2.786 2.786 0 01-.07-.48 2.521 2.521 0 01.26-.425 2.052 2.052 0 00.43-.727.705.705 0 00.04-.345 1.506 1.506 0 01-.48.162.78.78 0 00-.38-.365 1.355 1.355 0 01-.29-.492 1.8 1.8 0 01-.31-.466.808.808 0 01.44.444.838.838 0 00.3.333 2.642 2.642 0 00.15.373 1.013 1.013 0 00.55-.292c-.02-.092.07-.124.14-.142a.381.381 0 01.06-.141c.04-.059-.01-.136.05-.131a.284.284 0 00-.08-.242c-.05-.053-.13-.033-.19-.084a.377.377 0 00-.08-.127c-.02.05.01.217-.09.178-.14.044-.07-.079-.17-.135-.01.152-.06-.018-.12-.057a.367.367 0 01-.17-.189 1.771 1.771 0 01.4.2.079.079 0 00.1-.024c.06-.071.09.05.12.071a1.032 1.032 0 00.46-.017.46.46 0 00.26.152c.04.077-.03.015-.02.042a.285.285 0 00.15.113.083.083 0 00-.01-.113 1.836 1.836 0 01.27.453c.05.077.11.226.17.353a2.939 2.939 0 00-2.89-2.457zm.74.566a2.547 2.547 0 00-.27-.224c0-.082.13-.188.16-.057-.03 0-.04.038-.05.052a1.1 1.1 0 01.42.41.162.162 0 01-.18-.026c-.07.009-.13-.137-.08-.155zm.07-.3a.059.059 0 00.01-.043c.05.015.1.122.15.133-.05.058-.14-.061-.16-.092zm-.72.241c-.09.014-.18.133-.27.056a.506.506 0 01.03-.211c.09-.1.03 0 .12-.034a.033.033 0 01-.02.029s.53.106.36.212a.338.338 0 01-.22-.054zm.12.315c-.01.024.05.514-.12.388a.089.089 0 00-.13.012.463.463 0 01-.27-.007.229.229 0 00-.26-.033c-.13.122.02.159-.17.11-.12-.028-.08-.138-.24-.1a.245.245 0 01-.08-.056 2.2 2.2 0 01.1-.224c-.12-.115-.6.276-.72.177 0-.021.31-.265.36-.311a.78.78 0 01.35-.242c.1-.068.16.043.21.136.11.19-.13.1-.13.2.13.047.12.016.2-.077.06-.062-.01-.135.09-.083.05-.048-.31-.257-.11-.31-.04.046.25.189.15.263.11.13.04.22.16.241a.318.318 0 010-.1.052.052 0 01.04.013.915.915 0 01-.05-.164c.08.016.03.037.05-.021a.1.1 0 01.1 0c-.07.089.06.048-.01.129a.275.275 0 01.07.1.809.809 0 00.41-.043zm-1.24-.022a.143.143 0 00.06-.012 2 2 0 00.07-.225.531.531 0 00-.13.235zm-.24-.232v-.007a.1.1 0 00.05-.032c-.02-.008-.03.043-.05.037zm-1.43-3.3a1.894 1.894 0 01-.63 1.313v.624a4.959 4.959 0 00-1.69 3.719 4.894 4.894 0 00.11 1.019h-5.12a9.194 9.194 0 01.19-2.618c.3-.5.38-.608 1.67-1.067a15.4 15.4 0 001.59-.619l.01-1.058a1.894 1.894 0 01-.63-1.313.7.7 0 01-.63-.628c-.02-.233.04-.882.41-.817a5.824 5.824 0 01-.11-1.159 2.779 2.779 0 015.16 0 5.824 5.824 0 01-.11 1.159c.37-.065.43.584.41.817a.7.7 0 01-.63.624z" transform="translate(-883 -344)"/><g id="Flickr"><rect id="Rounded_Rectangle_154" data-name="Rounded Rectangle 154" x="362" y="122" width="31" height="31" rx="2" ry="2" fill="url(#linear-gradient)"/><path id="Ellipse_78_copy" data-name="Ellipse 78 copy" class="cls-3" d="M1256.5 478a3.5 3.5 0 11-3.5 3.5 3.5 3.5 0 013.5-3.5zm8 0a3.5 3.5 0 11-3.5 3.5 3.5 3.5 0 013.5-3.5z" transform="translate(-883 -344)"/></g><g id="Behance"><rect id="Rounded_Rectangle_155" data-name="Rounded Rectangle 155" x="402" y="2" width="31" height="31" rx="2" ry="2" fill="#0078ff"/><path class="cls-3" d="M1308.5 357h-5a.5.5 0 010-1h5a.5.5 0 010 1zm-2.5 2a4 4 0 014 4h-6.31a2.125 2.125 0 002.31 2.313 2.013 2.013 0 002.11-1.313h1.75a3.994 3.994 0 11-3.86-5zm2.07 3a2.217 2.217 0 00-2.07-1.281 2.138 2.138 0 00-2.14 1.281h4.21zm-10.57 5h-5.5v-11h5a3 3 0 012.51 4.641 3.5 3.5 0 01-2.01 6.359zm-.5-9h-3v2h3a1 1 0 000-2zm.5 4h-3.5v3h3.5a1.5 1.5 0 000-3z" transform="translate(-883 -344)"/></g><g id="Dribbble"><rect id="Rounded_Rectangle_156" data-name="Rounded Rectangle 156" x="402" y="42" width="31" height="31" rx="2" ry="2" fill="#ea4c89"/><path class="cls-3" d="M1300.5 408a6.5 6.5 0 116.5-6.5 6.5 6.5 0 01-6.5 6.5zm4.5-4.618a6.024 6.024 0 00-1.66-.257 6.229 6.229 0 00-.72.054 12.372 12.372 0 01.3 2.528 4.916 4.916 0 002.08-2.326zm-3.7 2.913c0-.11.01-.217.01-.327a10.937 10.937 0 00-.27-2.376 6.146 6.146 0 00-2.75 2.229 4.829 4.829 0 002.21.553 5.043 5.043 0 00.8-.08zm-4.3-1.413a7.77 7.77 0 013.57-2.852c-.12-.328-.27-.648-.42-.96a7.506 7.506 0 01-4.5.158c0 .091-.03.178-.03.272a4.847 4.847 0 001.38 3.381zm.48-7.181a4.866 4.866 0 00-1.48 1.916 5.987 5.987 0 001.66.258 6.09 6.09 0 001.62-.231 10.974 10.974 0 00-1.8-1.944zm1.52-.818a12.373 12.373 0 011.8 2.1 6.209 6.209 0 001.9-1.811 4.789 4.789 0 00-2.2-.547 4.848 4.848 0 00-1.5.257zm5.01 1.251a7.681 7.681 0 01-2.38 2.257 12.588 12.588 0 01.52 1.208 7.381 7.381 0 013.2.173c0-.092.02-.179.02-.272a4.843 4.843 0 00-1.36-3.367z" transform="translate(-883 -344)"/></g><g id="Li"><rect id="Rounded_Rectangle_152" data-name="Rounded Rectangle 152" x="362" y="42" width="31" height="31" rx="2" ry="2" fill="#f3f3f3"/><path d="M1263 406v-6h2v6h-2zm0-10h2v2h-2v-2zm-8 10v-10h2v8h4v2h-6z" transform="translate(-883 -344)" fill="#333" fill-rule="evenodd"/></g><g id="Open_ID" data-name="Open ID"><rect id="Rounded_Rectangle_146" data-name="Rounded Rectangle 146" x="2" y="122" width="31" height="31" rx="2" ry="2" fill="#f17d13"/><path class="cls-3" d="M904 482l1.358-1.358a5.143 5.143 0 00-2.358-1.311v-2.042a7.828 7.828 0 013.754 1.957L908 478v4h-4zm-4 4.966c-3.9-.175-7-2.319-7-4.966 0-2.419 2.577-4.436 6-4.9v2.027c-2.3.358-4 1.5-4 2.873 0 1.563 2.2 2.833 5 2.972V476l2-1v11l-2 1v-.034z" transform="translate(-883 -344)"/></g><g id="Dropbox"><rect id="Rounded_Rectangle_150" data-name="Rounded Rectangle 150" x="322" y="122" width="31" height="31" rx="2" ry="2" fill="#007ee5"/><path class="cls-3" d="M1213 477.889l4.42-2.889 3.08 2.585-4.44 2.768zm15 0l-4.42-2.889-3.08 2.585 4.44 2.768zm-7.5 4.684l4.44-2.22 3.06 1.917-4.4 2.889zm0 0l-4.44-2.22-3.06 1.917 4.4 2.889zm-4.4 2.81v.95l4.4 2.666 4.42-2.646v-.953l-1.3.828-3.12-2.586-3.1 2.586z" transform="translate(-883 -344)"/></g><g id="Bitrix24"><rect id="Rounded_Rectangle_149" data-name="Rounded Rectangle 149" x="322" y="82" width="31" height="31" rx="2" ry="2" fill="#3ebdf4"/><g id="Group_4_copy" data-name="Group 4 copy"><path id="Rounded_Rectangle_212_copy" data-name="Rounded Rectangle 212 copy" class="cls-3" d="M1226.5 449h-11.84a4.791 4.791 0 01-4.66-4.871 4.861 4.861 0 013.01-4.536c-.01-.145-.04-.284-.04-.432a5.071 5.071 0 014.98-5.157 4.927 4.927 0 014.08 2.209 4.026 4.026 0 011.31-.24 4.2 4.2 0 014.11 3.8 4.686 4.686 0 01-.95 9.227zm-6-10a3.5 3.5 0 103.5 3.5 3.5 3.5 0 00-3.5-3.5zm1.08 4h-1.16a.422.422 0 01-.42-.422v-2.124a.451.451 0 01.45-.454h.03a.459.459 0 01.46.454v1.7h.64a.422.422 0 010 .846z" transform="translate(-883 -344)"/></g></g><g id="Ms"><rect id="Rounded_Rectangle_153" data-name="Rounded Rectangle 153" x="362" y="82" width="31" height="31" rx="2" ry="2" fill="#ea3c00"/><path class="cls-3" d="M1255 436.646l7-2.647 4 1.765v11.471l-4 1.765-7-3 7 1v-10l-5 1v7l-2 1v-9.353z" transform="translate(-883 -344)"/></g><g id="Google"><rect id="Rounded_Rectangle_145" data-name="Rounded Rectangle 145" x="42" y="42" width="31" height="31" rx="2" ry="2" fill="#ededed"/><path id="Shape_446_copy" data-name="Shape 446 copy" d="M940.5 394a7.476 7.476 0 016.09 3.15l-2.436 1.74a4.459 4.459 0 00-6.641-.733l-1.982-2.265A7.467 7.467 0 01940.5 394z" transform="translate(-883 -344)" fill="#ea4335" fill-rule="evenodd"/><path id="Shape_444_copy" data-name="Shape 444 copy" d="M944.5 404H940v-3h8v3a7.29 7.29 0 01-2.711 3.43l-3.181-1.735A4.676 4.676 0 00944.5 404z" transform="translate(-883 -344)" fill="#4285f4" fill-rule="evenodd"/><path id="Shape_444_copy_2" data-name="Shape 444 copy 2" d="M942.139 405.712l3.136 1.71A8.332 8.332 0 01940.5 409a7.476 7.476 0 01-5.311-2.2l2.109-2.137A4.484 4.484 0 00940.5 406a5.059 5.059 0 001.639-.288z" transform="translate(-883 -344)" fill="#34a853" fill-rule="evenodd"/><path id="Shape_444_copy_3" data-name="Shape 444 copy 3" d="M937.513 398.157a4.469 4.469 0 00-.215 6.5l-2.108 2.143a7.453 7.453 0 01.355-10.886zm-2.322 8.64" transform="translate(-883 -344)" fill="#fbbc05" fill-rule="evenodd"/></g><g id="mailru"><rect id="Rounded_Rectangle_148" data-name="Rounded Rectangle 148" class="cls-18" x="322" y="42" width="31" height="31" rx="2" ry="2"/><path id="mailru_copy_14" data-name="mailru copy 14" d="M1223.09 401.442a2.757 2.757 0 00-2.81-2.772h-.06a2.736 2.736 0 00-2.67 3.007 2.673 2.673 0 002.67 2.921 2.848 2.848 0 002.87-2.807v-.349zm-2.86-4.319a4.216 4.216 0 013.02 1.356.643.643 0 01.62-.7h.09a.7.7 0 01.67.723v6.178a.388.388 0 00.65.354c.95-1.019 2.09-5.24-.6-7.686a6.218 6.218 0 00-7.64-.624 6.155 6.155 0 00-1.94 7.214 5.757 5.757 0 007.16 3.093c1.11-.466 1.62 1.093.47 1.6a7.526 7.526 0 01-8.84-3.383 7.6 7.6 0 0112.25-8.814c2.58 2.8 2.42 8.043-.09 10.081a1.741 1.741 0 01-2.81-1.325l-.01-.441a4.164 4.164 0 01-3 1.3 4.47 4.47 0 010-8.931" transform="translate(-883 -344)" fill="#ffbc3b" fill-rule="evenodd"/></g><g id="b"><rect id="Rounded_Rectangle_151" data-name="Rounded Rectangle 151" x="362" y="2" width="31" height="31" rx="2" ry="2" fill="#22a7f0"/><path class="cls-3" d="M1261 368a5 5 0 01-5-5v-8a1 1 0 012 0v4.022a4.993 4.993 0 113 8.978zm0-8a3 3 0 103 3 3 3 0 00-3-3z" transform="translate(-883 -344)"/></g><g id="instagram"><rect id="Rounded_Rectangle_3_copy_8" data-name="Rounded Rectangle 3 copy 8" x="122" y="122" width="31" height="31" rx="2" ry="2" fill="url(#linear-gradient-2)"/><path id="Rounded_Rectangle_1_copy" data-name="Rounded Rectangle 1 copy" class="cls-3" d="M1017 474h7a4 4 0 014 4v7a4 4 0 01-4 4h-7a4 4 0 01-4-4v-7a4 4 0 014-4zm0 2h7a2 2 0 012 2v7a2 2 0 01-2 2h-7a2 2 0 01-2-2v-7a2 2 0 012-2zm3.5 2a3.5 3.5 0 11-3.5 3.5 3.5 3.5 0 013.5-3.5zm0 2a1.5 1.5 0 11-1.5 1.5 1.5 1.5 0 011.5-1.5z" transform="translate(-883 -344)"/></g><g id="youtube"><rect id="Rounded_Rectangle_3_copy" data-name="Rounded Rectangle 3 copy" x="82" y="122" width="31" height="31" rx="2" ry="2" fill="#e62117"/><path class="cls-3" d="M984 488h-7a4.177 4.177 0 01-4-4.334v-4.333a4.177 4.177 0 014-4.333h7a4.176 4.176 0 014 4.333v4.333a4.176 4.176 0 01-4 4.334zm2-8.745a2.133 2.133 0 00-2-2.245h-7a2.133 2.133 0 00-2 2.245v4.489a2.133 2.133 0 002 2.245h7a2.133 2.133 0 002-2.245v-4.489zm-7-.268l4 2.513-4 2.511v-5.024z" transform="translate(-883 -344)"/></g><g id="Telegram"><rect id="Rounded_Rectangle_142" data-name="Rounded Rectangle 142" x="283" y="122" width="31" height="31" rx="2" ry="2" fill="#2aa1da"/><path id="Shape_933_copy" data-name="Shape 933 copy" class="cls-3" d="M1185.98 486.1a1 1 0 01-1.78.529c-1.09-.867-2.79-2.114-2.79-2.114s-1.23 2.166-1.45 2.388a.682.682 0 01-1-.133.966.966 0 01-.03-.1l.68-3.452 4.92-4.833-6.71 3.829s-3.03-.906-3.48-1.083a.7.7 0 01.07-1.262c.64-.326 11.93-4.638 12.31-4.749s1.38-.4 1.27.573-1.9 9.873-2.01 10.407z" transform="translate(-883 -344)"/></g><g id="Skype"><rect id="Rounded_Rectangle_141" data-name="Rounded Rectangle 141" x="283" y="82" width="31" height="31" rx="2" ry="2" fill="#00aff0"/><path id="Ellipse_36_copy_2" data-name="Ellipse 36 copy 2" class="cls-3" d="M1190 445a5 5 0 01-5 5 4.938 4.938 0 01-3.03-1.047c-.16.01-.31.047-.47.047a7.5 7.5 0 01-7.5-7.5c0-.161.04-.312.05-.471A4.937 4.937 0 011173 438a4.975 4.975 0 018.03-3.952c.16-.01.31-.048.47-.048a7.5 7.5 0 017.5 7.5c0 .161-.04.311-.05.469A4.94 4.94 0 011190 445zm-5.22-2.9a2.149 2.149 0 00-.67-.757 4.3 4.3 0 00-1.03-.5q-.615-.207-1.35-.378c-.39-.1-.68-.173-.85-.224a2.469 2.469 0 01-.5-.21 1.106 1.106 0 01-.39-.317.685.685 0 01-.13-.428.833.833 0 01.4-.689 1.88 1.88 0 011.1-.293 1.7 1.7 0 011.06.267 2.107 2.107 0 01.56.754 2.222 2.222 0 00.35.5.7.7 0 00.49.158.742.742 0 00.58-.26.873.873 0 00.23-.585 1.617 1.617 0 00-.18-.716 2.244 2.244 0 00-.58-.7 3.009 3.009 0 00-.98-.53 4.481 4.481 0 00-1.41-.2 4.733 4.733 0 00-1.77.3 2.543 2.543 0 00-1.16.863 2.138 2.138 0 00-.4 1.286 2.106 2.106 0 00.38 1.272 2.544 2.544 0 001.02.8 8.5 8.5 0 001.59.513c.47.1.85.2 1.13.3a1.722 1.722 0 01.68.4.912.912 0 01.25.675 1.035 1.035 0 01-.48.879 2.071 2.071 0 01-1.27.357 1.977 1.977 0 01-.91-.177 1.47 1.47 0 01-.54-.448 3.255 3.255 0 01-.36-.681 1.322 1.322 0 00-.34-.537.7.7 0 00-.49-.185.784.784 0 00-.59.236.77.77 0 00-.24.569 2.131 2.131 0 00.38 1.146 2.792 2.792 0 00.99.938 4.229 4.229 0 002.15.489 4.6 4.6 0 001.89-.357 2.749 2.749 0 001.21-.99 2.523 2.523 0 00.42-1.428 2.4 2.4 0 00-.24-1.112z" transform="translate(-883 -344)"/></g><g id="WhatsApp"><rect id="Rounded_Rectangle_140" data-name="Rounded Rectangle 140" x="283" y="42" width="31" height="31" rx="2" ry="2" fill="#65bc54"/><path id="Shape_51_copy_11" data-name="Shape 51 copy 11" class="cls-3" d="M1181.5 409a7.453 7.453 0 01-3.99-1.17L1174 409l1.17-3.511a7.486 7.486 0 116.33 3.511zm1.63-6.364a14.16 14.16 0 001.52.405.406.406 0 01.34.476v.283a.661.661 0 01-.24.542 2.764 2.764 0 01-.86.592 3.476 3.476 0 01-2.66-.8 8.749 8.749 0 01-1.31-1.075 9.306 9.306 0 01-1.08-1.311 3.48 3.48 0 01-.79-2.655 2.782 2.782 0 01.59-.856.62.62 0 01.54-.236h.29a.417.417 0 01.47.355c.15.592.26 1.02.41 1.5.06.2-.01.249-.17.368-.1.077-.18.133-.26.193a.36.36 0 00-.17.508 5.6 5.6 0 00.97 1.338 5.459 5.459 0 001.34.967.365.365 0 00.51-.169c.06-.081.11-.156.19-.261a.284.284 0 01.37-.171z" transform="translate(-883 -344)"/></g><g id="Viber"><rect id="Rounded_Rectangle_139" data-name="Rounded Rectangle 139" x="282" y="2" width="31" height="31" rx="2" ry="2" fill="#7b519d"/><path class="cls-3" d="M1177.41 355.923c.37.6 1.2 2.047 1.32 2.311a.8.8 0 01-.24 1.066 5.551 5.551 0 00-.91.689c-.14.267-.27 1.3 1.27 2.833s2.78 1.843 3.1 1.5.51-.722.71-.922a.863.863 0 011.16-.1 22.722 22.722 0 012.45 1.5c.49.378.86.653.68 1.145a3.464 3.464 0 01-.8 1.31 2.512 2.512 0 01-2.28.678 10.326 10.326 0 01-3.25-1.433 20.226 20.226 0 01-2.92-2.544 20.574 20.574 0 01-2.23-2.588 11.9 11.9 0 01-1.41-3.554 2.086 2.086 0 01.43-1.922 3.042 3.042 0 011.47-.844c.39-.102.83-.102 1.45.875zm3.09.159V355a6.5 6.5 0 016.5 6.5h-1.08a5.421 5.421 0 00-5.42-5.418zm4.33 5.417h-1.08a3.252 3.252 0 00-3.25-3.249v-1.084a4.332 4.332 0 014.33 4.334z" transform="translate(-883 -344)"/></g><g id="Tumblr"><rect id="Rounded_Rectangle_138" data-name="Rounded Rectangle 138" x="243" y="122" width="31" height="31" rx="2" ry="2" fill="#547093"/><path id="t_copy_2" data-name="t copy 2" class="cls-3" d="M1143.6 485.984a4.273 4.273 0 002.4-.778v2.9a7.538 7.538 0 01-3.61.893 6.189 6.189 0 01-2.79-.652c-1.01-.576-1.63-1.346-1.61-3.277v-4.061H1136v-2.72a4.625 4.625 0 003.43-4.289h2.57v3.972h3v3.037h-3v3.234c0 1.27.5 1.741 1.6 1.741z" transform="translate(-883 -344)"/></g><g id="Tencent_Weibo" data-name="Tencent Weibo"><rect id="Rounded_Rectangle_137" data-name="Rounded Rectangle 137" x="243" y="82" width="31" height="31" rx="2" ry="2" fill="#53a9d7"/><path id="Ellipse_255_copy_2" data-name="Ellipse 255 copy 2" class="cls-3" d="M1151.98 445.732a.277.277 0 01-.36.156c-.01 0-.01 0-.02-.007l-.46-.188a7.311 7.311 0 01-3.96-3.865 1.186 1.186 0 11.55-.135 6.769 6.769 0 003.65 3.49l.46.188a.29.29 0 01.14.361zm-2.36-3.128a.294.294 0 01-.51-.286.268.268 0 01.05-.087 2.409 2.409 0 00.37-.634 2.55 2.55 0 00-1.39-3.31 2.521 2.521 0 00-3.29 1.408 2.555 2.555 0 001.4 3.31 2.5 2.5 0 00.96.184.318.318 0 01.13.02.3.3 0 01-.12.57 3.069 3.069 0 01-1.19-.228 3.146 3.146 0 01-1.72-4.079 3.1 3.1 0 014.04-1.735 3.142 3.142 0 011.73 4.079 3.424 3.424 0 01-.46.784zm-11.94 1.519a5.489 5.489 0 01-1.59-.234.525.525 0 01.13-1.032.543.543 0 01.18.032 4.416 4.416 0 001.28.188 4.513 4.513 0 10-4.48-4.513 4.619 4.619 0 00.33 1.71.461.461 0 01.06.232.529.529 0 01-.53.524.511.511 0 01-.48-.341h-.01a5.747 5.747 0 01-.41-2.125 5.52 5.52 0 115.52 5.559zm-2.09-5.562a2.09 2.09 0 11.73 1.6 12.416 12.416 0 00-3.33 8.479v.891a.5.5 0 01-.5.472.494.494 0 01-.49-.5v-.918a13.382 13.382 0 013.74-9.252 2.18 2.18 0 01-.15-.772z" transform="translate(-883 -344)"/></g><g id="Surfingbird"><rect id="Rounded_Rectangle_136" data-name="Rounded Rectangle 136" x="243" y="42" width="31" height="31" rx="2" ry="2" fill="#30baff"/><path class="cls-3" d="M1132 397.733l6.92.978-3.51-4.711 8.85 4.889 2.62-2.933h1.32l2.8 1.333-3.15.978-.35 2.4-4.03 4h-2.28l-.78 2.222V410l-2.89-.977 3.32-6.134z" transform="translate(-883 -344)"/></g><g id="Sina_Weibo" data-name="Sina Weibo"><rect id="Rounded_Rectangle_135" data-name="Rounded Rectangle 135" x="242" y="2" width="31" height="31" rx="2" ry="2" fill="#c53220"/><path id="Ellipse_253_copy_7" data-name="Ellipse 253 copy 7" class="cls-3" d="M1149.73 360.038h-.01a.724.724 0 01-.68.433.7.7 0 01-.73-.665.556.556 0 01.03-.182v-.007c0-.007.01-.015.01-.022a2.966 2.966 0 00.19-1.032 3.414 3.414 0 00-3.56-3.236 3.967 3.967 0 00-.64.052v-.013a.817.817 0 01-.28.05.7.7 0 01-.73-.664.681.681 0 01.59-.652 5.445 5.445 0 011.06-.1 4.81 4.81 0 015.02 4.565 4.274 4.274 0 01-.27 1.473zm-4.73-2.532a1.287 1.287 0 00-.23.02.649.649 0 01-.17.021.578.578 0 11-.08-1.153 2.7 2.7 0 01.48-.043 2.351 2.351 0 012.45 2.232 2.163 2.163 0 01-.13.722.646.646 0 01-.6.385.614.614 0 01-.64-.579.456.456 0 01.04-.2.9.9 0 00.06-.328 1.131 1.131 0 00-1.18-1.077zm-.21.885a1.358 1.358 0 01.3 1.568c-.17.5-.23.554-.15.647a2.751 2.751 0 00.71.273 3.247 3.247 0 011.54 1.056 2.083 2.083 0 01.22 2.01 4.784 4.784 0 01-1.42 1.874 10.272 10.272 0 01-2.21 1.294 14.2 14.2 0 01-2.96.783 19.466 19.466 0 01-1.98.1 13.988 13.988 0 01-2.44-.239 13.187 13.187 0 01-2.77-.885 6.14 6.14 0 01-2.25-1.942 3 3 0 01-.26-2.419 6.145 6.145 0 011.35-2.521 8.051 8.051 0 01.63-.716 12.837 12.837 0 012.33-1.975 9.709 9.709 0 012.47-1.159 2.506 2.506 0 012.17.2 1.606 1.606 0 01.34 1.534 1.074 1.074 0 00-.15.715.621.621 0 00.6-.068 7.433 7.433 0 011.46-.409 3.257 3.257 0 012.47.279zm-6.58 1.781c-3.14.3-5.53 2.059-5.32 3.936s2.93 3.157 6.08 2.86 5.53-2.059 5.32-3.936-2.93-3.157-6.08-2.86zm.61 6.065c-1.64.363-3.24-.376-3.59-1.651s.71-2.6 2.34-2.968 3.25.375 3.6 1.651-.71 2.604-2.35 2.968zm-.54-2.155a1.093 1.093 0 10-.76 1.129.974.974 0 00.76-1.129zm.92-.716a.373.373 0 00-.47-.224.381.381 0 00-.3.428.371.371 0 00.47.223.364.364 0 00.3-.427z" transform="translate(-883 -344)"/></g><g id="Renren"><rect id="Rounded_Rectangle_134" data-name="Rounded Rectangle 134" x="203" y="122" width="31" height="31" rx="2" ry="2" fill="#1760a7"/><path id="Rounded_Rectangle_117_copy_2" data-name="Rounded Rectangle 117 copy 2" class="cls-3" d="M1110.67 484.768a5.531 5.531 0 01-3.67-5.209v-4.469a6 6 0 013.67 9.678zM1106 487a5.919 5.919 0 01-3.06-.845 7.557 7.557 0 003.03-2.868 7.551 7.551 0 002.96 2.945 5.957 5.957 0 01-2.93.768zm-4.1-2.583a5.922 5.922 0 00-.4-7.377 5.972 5.972 0 013.5-1.948v4.408a5.463 5.463 0 01-3.1 4.917zm-.8 0a5.463 5.463 0 01-3.1-4.918v-4.407a5.972 5.972 0 013.5 1.948 5.922 5.922 0 00-.4 7.377zM1097 487a5.957 5.957 0 01-2.93-.768 7.551 7.551 0 002.96-2.945 7.557 7.557 0 003.03 2.868 5.919 5.919 0 01-3.06.845zm-4.67-2.232a6 6 0 013.67-9.678v4.469a5.531 5.531 0 01-3.67 5.209z" transform="translate(-883 -344)"/></g><g id="Qzone"><rect id="Rounded_Rectangle_133" data-name="Rounded Rectangle 133" x="203" y="82" width="31" height="31" rx="2" ry="2" fill="#f5b53c"/><path id="Shape_451_copy" data-name="Shape 451 copy" class="cls-3" d="M1110.9 439.8l-4.47 3.889.16.824h-.28c-3.18.006-5.94-.289-5.94-.289l6.09-4.081c-3.14-.716-7.8-.3-9.96-.035-.73.088-1.17.157-1.17.157l.12.078s1.43 0 1.83.017c3.89.209 5.81.432 5.81.432l-6.03 4.148c4.09.81 9.2 0 11.17-.381a.169.169 0 01-.04.015c-.36.139-1.21.48-1.36.52a.322.322 0 00-.12.083l.83 4.405a.2.2 0 01.01.078.346.346 0 01-.36.333.441.441 0 01-.18-.044l-5.51-3-5.48 2.977a.366.366 0 01-.21.066.346.346 0 01-.36-.333v-.045l1.2-5.931-4.53-3.874c-.01 0-.01-.01-.02-.015a.319.319 0 01-.1-.227.341.341 0 01.32-.33h.01l6-.593 2.84-5.433a.021.021 0 01.01-.021v-.01a.377.377 0 01.64 0l2.85 5.464 6.01.593a.344.344 0 01.32.33.328.328 0 01-.1.233z" transform="translate(-883 -344)"/></g><g id="Pocket"><rect id="Rounded_Rectangle_132" data-name="Rounded Rectangle 132" x="203" y="42" width="31" height="31" rx="2" ry="2" fill="#ee4056"/><path id="Rounded_Rectangle_116" data-name="Rounded Rectangle 116" class="cls-3" d="M1101.5 410a8.5 8.5 0 01-8.5-8.5V395a1 1 0 011-1h15a1 1 0 011 1v6.5a8.5 8.5 0 01-8.5 8.5zm5.18-10.751a.994.994 0 00-1.41 0l-3.77 3.427-3.8-3.383a1 1 0 10-1.41 1.415l4.51 4.019a1.008 1.008 0 001.42 0l4.46-4.064a1 1 0 000-1.415z" transform="translate(-883 -344)"/></g><g id="LiveID"><rect id="Rounded_Rectangle_144" data-name="Rounded Rectangle 144" x="2" y="82" width="31" height="31" rx="2" ry="2" fill="#2f46d7"/><path class="cls-3" d="M906.954 436.639l-2.211 8.412a2.119 2.119 0 01-1.859 1.5l2.278-8.5a.751.751 0 00-.447-.881l-4.847-1.435a.431.431 0 00-.552.214l4.4 1.708a.714.714 0 01.424.835l-2.69 10.165a.431.431 0 01-.584.289l-6.555-2.674a.506.506 0 01-.3-.421.471.471 0 01-.062-.368l.368-1.483H898l-.014 2.224 4.234-4.234-4.234-4.172L898 440h-2.7l.907-3.694.064-.268a3.269 3.269 0 01.242-.854.121.121 0 01.01-.014.455.455 0 01.414-.193h8.518a1.31 1.31 0 011.499 1.662z" transform="translate(-883 -344)"/></g><g id="Livejournal"><rect id="Rounded_Rectangle_131" data-name="Rounded Rectangle 131" x="122" y="42" width="31" height="31" rx="2" ry="2" fill="#00688a"/><path id="Ellipse_76_copy_4" data-name="Ellipse 76 copy 4" class="cls-3" d="M1026.39 408.018l-5.01-1-.86-.86-.17-.163-3.35-3.357-1.18-1.18-2.69-2.685c-.46-.456.22-1.872 1.51-3.163s2.71-1.966 3.16-1.509l2.69 2.684.2.2 5.36 5.362 1.01 5zm-2.32-4.343a6.716 6.716 0 00-.71.651 5.568 5.568 0 00-.64.7l1.63.269zm-6.74-7.4c-.37-.371-.79.109-1.35.666s-1.04.977-.67 1.348l1.1 1.092a8.37 8.37 0 01.92-1.086 8.213 8.213 0 011.09-.926zm3.01 3.016l-.14-.142-.19-.189c-.37-.37-.79.11-1.34.666s-1.04.978-.67 1.348l.16.158 2.95 2.948a8.776 8.776 0 012.01-2.012z" transform="translate(-883 -344)"/></g><g id="LinkedIn"><rect id="Rounded_Rectangle_130" data-name="Rounded Rectangle 130" x="82" y="82" width="31" height="31" rx="2" ry="2" fill="#0083be"/><path class="cls-3" d="M977 439h-3v9h3v-9zm4 0h-3v9h3v-5a1.785 1.785 0 011.524-1.006 1.433 1.433 0 011.454 1.646L984 448h3v-5c0-2.128-.622-4-3.263-4a3.38 3.38 0 00-2.75 1.388zm-5.5-4a1.5 1.5 0 11-1.5 1.5 1.5 1.5 0 011.5-1.5z" transform="translate(-883 -344)"/></g><g id="Evernote"><rect id="Rounded_Rectangle_129" data-name="Rounded Rectangle 129" x="202" y="2" width="31" height="31" rx="2" ry="2" fill="#24d666"/><path id="Shape_450_copy" data-name="Shape 450 copy" class="cls-3" d="M1101.29 354.358a29.169 29.169 0 013.32.168c1.35.183 1.88.5 2.05 1.736a52.766 52.766 0 01.33 6.217c-.06 1.7-.62 5.36-1.16 6.217a2.206 2.206 0 01-1.94 1.289 14.26 14.26 0 01-2.59-.113 1.531 1.531 0 01-1.29-1.571c-.05-1.116-.06-1.489.5-1.961a2.238 2.238 0 011.31-.342c.41-.023 1.21-.023 1.21-.023a.961.961 0 00-.09.986s-.92.046-1.1.069a.59.59 0 00-.49.685c.04.478.27.563.76.563s1.26-.022 1.51-.045a.833.833 0 00.67-.82 6.378 6.378 0 00-.2-1.958 1.341 1.341 0 00-1.42-.888 3.7 3.7 0 01-2.08-.564 3.441 3.441 0 01-.5-1.8s-.14 1.241-.29 1.889-.3 1.166-1.22 1.037a27.674 27.674 0 01-3.5-.679 1.713 1.713 0 01-1.14-1.238 20.249 20.249 0 01-.75-3.121 6.712 6.712 0 01-.18-1.931 1.2 1.2 0 011.27-1.172c.91-.036 1.33-.018 1.63-.018a.865.865 0 001.12-.826c-.01-.907-.03-1.027-.04-1.351a1.594 1.594 0 011.61-1.783c1.55-.009 1.99.13 2.32.556a1.592 1.592 0 01.37.792zm-8.09 1.885l3.03-2.806a1.309 1.309 0 00-.21.574c-.03.322-.01 1.547-.02 1.678s0 .292-.22.3-1.67-.01-1.87 0a1.477 1.477 0 00-.71.254zm9.82 4.812a1.072 1.072 0 011-1.148 1.141 1.141 0 011.04 1.289 4.384 4.384 0 00-2.04-.141z" transform="translate(-883 -344)"/></g><g id="Reddit"><rect id="Rounded_Rectangle_128" data-name="Rounded Rectangle 128" class="cls-38" x="162" y="122" width="31" height="31" rx="2" ry="2"/><path id="Rounded_Rectangle_114_copy_4" data-name="Rounded Rectangle 114 copy 4" class="cls-3" d="M1062.37 477.178a9.814 9.814 0 013.61 1.353 2.451 2.451 0 011.52-.531 2.5 2.5 0 011.4 4.569 4.807 4.807 0 01.1.931c0 3.59-3.81 6.5-8.5 6.5s-8.5-2.91-8.5-6.5a4.807 4.807 0 01.1-.931 2.5 2.5 0 011.4-4.569 2.451 2.451 0 011.52.531 10.17 10.17 0 015.37-1.524l.64-3.136v-.016c0-.01.01-.018.01-.028l.02-.083a.362.362 0 01.04-.1.876.876 0 01.11-.218.731.731 0 01.11-.126.958.958 0 01.15-.134.717.717 0 01.18-.086.758.758 0 01.16-.06 1.058 1.058 0 01.21-.012.866.866 0 01.14-.008l3.35.67a2 2 0 11-.4 1.956l-2.33-.465zm2.63 5.322a1.5 1.5 0 10-1.5 1.5 1.5 1.5 0 001.5-1.5zm-7.5-1.5a1.5 1.5 0 101.5 1.5 1.5 1.5 0 00-1.5-1.5zm-.29 5.191l-.55.812a7.893 7.893 0 007.68 0l-.55-.812a7.094 7.094 0 01-6.58 0z" transform="translate(-883 -344)"/></g><g id="Digg"><rect id="Rounded_Rectangle_127" data-name="Rounded Rectangle 127" x="162" y="82" width="31" height="31" rx="2" ry="2"/><path class="cls-3" d="M1069 449h-4v-2h3v-1h-3v-8h5v11h-1zm-2-9v4h1v-4h-1zm-5 9h-3v-2h3v-1h-3v-8h5v11h-2zm0-9h-1v4h1v-4zm-6-2h2v8h-2v-8zm0-3h2v2h-2v-2zm-3 11h-3v-8h3v-3h2v11h-2zm0-6h-1v4h1v-4z" transform="translate(-883 -344)"/></g><g id="Delicious"><rect id="Rounded_Rectangle_126" data-name="Rounded Rectangle 126" x="162" y="42" width="31" height="31" rx="2" ry="2" fill="#31a9ff"/><path id="Rectangle_576_copy" data-name="Rectangle 576 copy" class="cls-3" d="M1061 394h8v8h-8v-8zm-8 8h8v8h-8v-8z" transform="translate(-883 -344)"/></g><g id="Blogger"><rect id="Rounded_Rectangle_125" data-name="Rounded Rectangle 125" class="cls-38" x="42" y="82" width="31" height="31" rx="2" ry="2"/><path class="cls-3" d="M946.966 440.863l-.112-.245-.186-.155c-.244-.2-1.237.014-1.57-.305a2.105 2.105 0 01-.342-1.205 3.641 3.641 0 00-.377-1.51 4.634 4.634 0 00-3.242-2.427H938.2a4.342 4.342 0 00-4.2 4.45v4.078a4.337 4.337 0 004.2 4.441h4.823c2.31 0 3.942-2 3.955-4.441l.026-2.483zm-9.137-2.852h3.316a1 1 0 010 1.976h-3.316a1 1 0 010-1.976zm5.353 6.989h-5.361a1.027 1.027 0 010-2.006h5.361a1.028 1.028 0 010 2.006z" transform="translate(-883 -344)"/></g><g id="Twitter"><rect id="Rounded_Rectangle_124" data-name="Rounded Rectangle 124" x="2" y="42" width="31" height="31" rx="2" ry="2" fill="#1da1f2"/><path id="Твиттер_copy_21" data-name="Твиттер copy 21" class="cls-3" d="M900.256 399.4s.237-3.348 2.571-3.377c1.9-.025 2.264.838 2.264.838a4.285 4.285 0 001.557-.862 2.551 2.551 0 01-.637 1.508 1.574 1.574 0 00.99-.359 1.941 1.941 0 01-1.038 1.244 9.716 9.716 0 01-1.6 5.917c-1.7 2.469-4.792 2.653-6.488 2.674a9.046 9.046 0 01-3.867-1.127s2.573.032 3.725-.81a18.237 18.237 0 01-2.55-2.107 2.542 2.542 0 00.923-.093 13.754 13.754 0 01-2.1-2.9 3.357 3.357 0 00.968.05s-1.5-2.435-.79-4.015c0 .004 2.535 3.206 6.072 3.419z" transform="translate(-883 -344)"/></g><g id="Pinterest"><rect id="Rounded_Rectangle_123" data-name="Rounded Rectangle 123" x="162" y="2" width="31" height="31" rx="2" ry="2" fill="#c20724"/><path id="Shape_449_copy" data-name="Shape 449 copy" class="cls-3" d="M1057.07 365.04c.24-1.242.75-3.417.86-3.627a1.12 1.12 0 00.06-.907 4.207 4.207 0 010-2.479 1.675 1.675 0 012.27-1.088c1.09.461.49 2.173.36 2.7a10.307 10.307 0 00-.57 2.536 1.461 1.461 0 001.47 1.432 2.745 2.745 0 002.33-1.7 7.683 7.683 0 00.76-3.326 3.963 3.963 0 00-.76-2.568 4.393 4.393 0 00-3.27-1.369 4.622 4.622 0 00-3.15 1.17 4.692 4.692 0 00-1.56 3.2 3.406 3.406 0 00.36 1.811 1.793 1.793 0 01.44.872c-.04.214-.22.84-.25.955s-.29.346-.7.082a3.4 3.4 0 01-1.46-1.875 5.991 5.991 0 01.03-3.627 7 7 0 012.29-2.957 7.234 7.234 0 014.39-1.288 6 6 0 014.48 1.856 5.608 5.608 0 011.54 4.187 6.975 6.975 0 01-1.79 4.742 4.38 4.38 0 01-3.45 1.482 3.208 3.208 0 01-2.3-1.087s-.56 1.976-.74 2.585a11.445 11.445 0 01-1.08 2.387 2.521 2.521 0 01-.83.857 13.954 13.954 0 01-.05-3.26 10.41 10.41 0 01.32-1.696z" transform="translate(-883 -344)"/></g><g id="Yandex"><rect id="Rounded_Rectangle_143" data-name="Rounded Rectangle 143" x="82" y="42" width="31" height="31" rx="2" ry="2" fill="#ffdb4c"/><path d="M983.781 394.976H981.5a4.257 4.257 0 00-4.48 4.343 3.686 3.686 0 002.567 3.612l-2.554 4.091a1.252 1.252 0 00.02.98h1.377a.234.234 0 00.241-.121l2.788-4.627h.531v4.627a.141.141 0 00.14.121h1.716a.13.13 0 00.161-.139V395.15a.178.178 0 00-.226-.174zm-1.8 6.966h-.37a2.469 2.469 0 01-2.608-2.8c0-2.171 1.2-2.936 2.427-2.936h.551v5.733z" transform="translate(-883 -344)" fill="#ed1c24" fill-rule="evenodd"/></g><g id="Google_" data-name="Google+"><rect id="Rounded_Rectangle_122" data-name="Rounded Rectangle 122" x="42" y="122" width="31" height="31" rx="2" ry="2" fill="#db4437"/><path class="cls-3" d="M950 483h-2v2h-2v-2h-2v-2h2v-2h2v2h2v2zm-12.5 4a5.5 5.5 0 114.431-8.734l-1.7 1.066A3.494 3.494 0 10937.5 485a3.727 3.727 0 003.307-2H938v-2h5v2a5.769 5.769 0 01-5.5 4z" transform="translate(-883 -344)"/></g><g id="Moi_mir" data-name="Moi mir"><rect id="Rounded_Rectangle_121" data-name="Rounded Rectangle 121" class="cls-18" x="122" y="2" width="31" height="31" rx="2" ry="2"/><path id="Rounded_Rectangle_115_copy" data-name="Rounded Rectangle 115 copy" class="cls-3" d="M1017.5 356a1.5 1.5 0 11-1.5 1.5 1.5 1.5 0 011.5-1.5zm6 0a1.5 1.5 0 11-1.5 1.5 1.5 1.5 0 011.5-1.5zm4 10.875a1.012 1.012 0 01-1.37-.361l-.83-1.272a7.425 7.425 0 01-9.59 0l-.84 1.293a1 1 0 01-1.74-1l2-3.081a1 1 0 011.74 1l-.06.092a5.423 5.423 0 007.38 0l-.06-.083a.986.986 0 01.37-1.349 1.012 1.012 0 011.37.361l2 3.043a.986.986 0 01-.37 1.356z" transform="translate(-883 -344)"/></g><g id="Одноклассники"><rect id="Rounded_Rectangle_120" data-name="Rounded Rectangle 120" x="42" y="2" width="31" height="31" rx="2" ry="2" fill="#ff9205"/><path id="Одноклассники_copy_26" data-name="Одноклассники copy 26" class="cls-3" d="M940.5 355a3.5 3.5 0 11-3.518 3.5 3.506 3.506 0 013.518-3.5zm.008 1.957a1.52 1.52 0 11-1.535 1.518 1.527 1.527 0 011.532-1.52zm-.008 6.059a5.817 5.817 0 001.965-.357 5.882 5.882 0 011.116-.564c.22.008.583.373.521 1.317-.035.539-1.018.761-1.364.967a2.266 2.266 0 01-.725.247s.847.906 1.063 1.129a2.667 2.667 0 01.948 1.278 1.342 1.342 0 01-1 1 4.5 4.5 0 01-1.4-1.12c-.582-.556-1.115-1.069-1.115-1.069s-.546.486-1.115 1.048a4.622 4.622 0 01-1.368 1.141 1.441 1.441 0 01-1.062-1.16 6.331 6.331 0 011.241-1.487 8.055 8.055 0 01.8-.757 1.9 1.9 0 01-.638-.208c-.481-.267-1.511-.547-1.484-1.043.029-.512.159-1.3.616-1.3a6.085 6.085 0 011.119.542 4.365 4.365 0 001.882.394z" transform="translate(-883 -344)"/></g><g id="Facebook"><rect id="Rounded_Rectangle_119" data-name="Rounded Rectangle 119" x="82" y="2" width="31" height="31" rx="2" ry="2" fill="#3b5998"/><path id="facebook_copy_21" data-name="facebook copy 21" class="cls-3" d="M982.988 356.98l.312-1.98a15.92 15.92 0 00-2.4.018 2.251 2.251 0 00-1.427.784 2.462 2.462 0 00-.477 1.6v2.592l-2-.015v2.007l2 .007v6l2.013-.005v-6h2.374l.31-2.007h-2.683v-2.509a.562.562 0 01.671-.487c.441-.006 1.307-.005 1.307-.005z" transform="translate(-883 -344)"/></g><g id="Vkontakte"><rect id="Rounded_Rectangle_118" data-name="Rounded Rectangle 118" x="2" y="2" width="31" height="31" rx="2" ry="2" fill="#6695bd"/><path id="Вконтакте_copy_26" data-name="Вконтакте copy 26" class="cls-3" d="M901.994 357.77v3.257a.34.34 0 00.426.351c.3-.021.978-2.8 1.279-3.406a1.925 1.925 0 01.738-.826.608.608 0 01.367-.156h2.878a.465.465 0 01.3.728c-.225.5-2.155 3.61-2.255 3.736a1.311 1.311 0 00-.237.55 1.2 1.2 0 00.312.627c.2.226 1.816 2.005 1.967 2.155a1.191 1.191 0 01.275.576.763.763 0 01-.8.613h-2.342a2.8 2.8 0 01-.952-.565c-.225-.2-1.059-1.152-1.184-1.277a.407.407 0 00-.351-.145c-.15 0-.435.015-.422.585a1.991 1.991 0 01-.238 1.139.993.993 0 01-.737.275 5 5 0 01-2.914-.727c-1.574-.977-3.366-3.588-4.2-5.254a6.513 6.513 0 01-.9-2.715c.05-.176.05-.3.226-.3h2.6a.842.842 0 01.351.326c.075.1.647 1.812.822 2.113s1.038 1.95 1.506 1.95a.6.6 0 00.474-.7v-2.18a1.943 1.943 0 00-.978-1 1.261 1.261 0 01.927-.5c.6-.025 2.105-.025 2.43.024a.782.782 0 01.632.746z" transform="translate(-883 -344)"/></g><g id="Kollections"><rect id="Rounded_Rectangle_117" data-name="Rounded Rectangle 117" x="322" y="2" width="31" height="31" rx="2" ry="2" fill="#eb1c00"/><path class="cls-3" d="M1216 356v12l4.5-3 4.5 3v-12h-9z" transform="translate(-883 -344)"/></g></svg>