<svg width="20" height="20" fill="none" xmlns="http://www.w3.org/2000/svg"><path fill-rule="evenodd" clip-rule="evenodd" d="M14.808 1.216c.213.074.37.256.41.478l2.01 10.925a.625.625 0 01-.834.699l-1.904-.714a15.43 15.43 0 00-8.201-.725.625.625 0 01-.728-.502l-.804-4.37a.625.625 0 01.501-.728 15.432 15.432 0 007.406-3.597l1.526-1.344a.625.625 0 01.618-.122zm-.62 1.79l-.697.614a16.682 16.682 0 01-7.394 3.763l.582 3.165c2.777-.404 5.615-.1 8.25.886l.87.326-1.61-8.755zM3.273 7.773a.625.625 0 01.728.501l.403 2.186a.625.625 0 11-1.23.226l-.402-2.185a.625.625 0 01.501-.728zm6.281 4.524a.625.625 0 01.85.246l1.695 3.078a.625.625 0 01-.434.916l-3.279.603a.625.625 0 01-.66-.313L6.03 13.751a.625.625 0 111.095-.603l1.478 2.682 1.983-.364-1.278-2.318a.625.625 0 01.246-.85z" fill="#333"/></svg>