<svg width="88" height="25" viewBox="0 0 88 25" fill="none" xmlns="http://www.w3.org/2000/svg">
    <path d="M57.8821 21.6347C57.8162 23.5487 56.7615 24.6048 55.6409 24.6048C54.1247 24.6048 53.136 23.3507 51.3561 20.0506C50.5651 21.0407 49.84 21.9647 49.2467 22.6907C48.3239 23.8128 47.4669 24.5388 46.4122 24.5388C45.2916 24.5388 44.8961 23.6807 44.8961 22.5587C44.8961 20.0506 45.5553 12.1304 45.0279 8.76431C45.5553 8.4343 46.3463 8.2363 46.9396 8.2363C48.8512 8.2363 49.4445 9.55634 49.4445 11.8004C49.4445 13.3184 49.2467 16.2225 49.049 17.6086C52.0153 13.3184 53.7951 10.2164 54.4543 8.3683C56.4978 8.03829 57.5525 9.02832 57.5525 10.5464C57.5525 12.1304 56.5637 13.6485 53.927 16.7505C55.575 19.6546 56.7615 21.2387 57.8821 21.6347Z" fill="white"/>
    <path d="M30.4683 16.5525C30.4683 11.6684 32.9073 8.30226 37.0602 8.30226C41.2131 8.30226 43.3884 11.6684 43.3884 16.3545C43.3884 21.2386 41.0812 24.7367 36.7965 24.7367C33.0391 24.7367 30.4683 21.8327 30.4683 16.5525ZM34.4893 16.6185C34.4893 19.4566 35.2804 21.0406 36.9283 21.0406C38.5763 21.0406 39.3673 19.3246 39.3673 16.2225C39.3673 13.9124 38.84 11.9984 37.0602 11.9984C35.3463 11.9984 34.4893 13.7144 34.4893 16.6185Z" fill="white"/>
    <path d="M72.2609 21.6348C72.195 23.5489 71.1403 24.6049 70.0196 24.6049C68.5035 24.6049 67.5806 23.3508 65.9986 20.0508C65.2076 21.0408 64.4824 21.8988 63.9551 22.6248C63.0322 23.7469 62.1753 24.4729 61.1206 24.4729C60 24.4729 59.6045 23.6149 59.6045 22.4928C59.6045 19.9847 60.2636 12.0645 59.7363 8.69842C60.2636 8.36841 61.0547 8.1704 61.6479 8.1704C63.5596 8.1704 64.1529 9.49044 64.1529 11.7345C64.1529 13.2526 63.9551 16.1566 63.7573 17.5427C66.7237 13.2526 68.5035 10.1505 69.1627 8.30241C71.2062 7.9724 72.2609 8.96243 72.2609 10.4805C72.2609 12.0645 71.2062 13.5826 68.6353 16.7507C70.0855 19.5887 71.1403 21.3048 72.2609 21.6348Z" fill="white"/>
    <path d="M86.2355 20.1826C86.631 22.0967 87.2243 23.6807 87.4221 24.0767C86.9606 24.4727 86.2355 24.7367 85.3127 24.7367C83.2033 24.7367 82.61 23.6147 82.1486 20.4466C80.8961 20.5126 79.6436 20.5786 78.523 20.6446C77.9297 23.8127 77.2706 24.6707 75.4907 24.6707C74.6338 24.6707 73.9087 24.4067 73.5132 23.8127C73.8428 23.2187 74.1724 21.9647 74.7656 19.1926C75.293 16.5525 76.1499 12.9884 76.941 11.1403C77.6661 9.4903 78.6549 8.30226 80.8302 8.30226C84.258 8.30226 84.9171 11.0743 85.7082 16.8825C86.5651 16.7505 87.1584 16.6845 87.5539 16.5525C87.9494 18.4006 87.6198 19.7206 86.2355 20.1826ZM79.1822 17.3445C80.1051 17.2785 80.962 17.2125 81.819 17.2125C81.4894 13.9784 81.3575 11.9324 80.8302 11.4704C80.3688 11.8004 79.7755 13.9784 79.1822 17.3445Z" fill="white"/>
    <path d="M4.61433 24.9878C6.91887 24.9511 8.01627 23.0466 7.90653 19.2008C7.90653 18.9078 7.86995 17.0033 7.79679 13.4506C7.76021 11.9855 7.90653 10.8867 8.19917 10.1908C8.45523 10.667 8.78445 11.5826 9.2234 12.9012C9.62578 14.2563 10.0282 15.3551 10.394 16.2341C10.7232 17.1498 11.3085 17.9556 12.0766 18.7247C12.8448 19.4939 13.6862 19.8601 14.6738 19.8235C15.6249 19.7869 16.5394 19.091 17.4539 17.6992C18.3684 16.3074 19.1 14.7691 19.6853 13.1209C20.2705 11.4728 20.8924 9.93446 21.5874 8.54268C22.2459 7.15089 22.8311 6.45499 23.3067 6.45499C23.4164 7.15089 23.3067 9.31182 22.9043 12.9378C22.5019 16.5638 22.319 19.3107 22.3922 21.1054C22.4653 22.6803 23.2335 23.7425 24.7333 24.2919C26.2331 24.8413 27.55 24.6215 28.7571 23.6326C28.5742 22.1676 28.4279 20.3363 28.3913 18.1387C28.3547 17.0033 28.4279 15.2819 28.5376 12.9378C28.6473 10.5937 28.6839 8.90894 28.6473 7.84678C28.501 3.01215 27.2207 0.301819 23.1604 0.448323C21.5874 0.484951 20.4169 1.14422 19.3926 2.75576C18.8439 3.59816 18.4415 4.33068 18.1123 5.02658C17.7831 5.72247 17.3441 6.71137 16.7955 8.06654C16.2468 9.4217 15.7712 10.5205 15.4054 11.2896C15.2957 11.0332 15.1128 10.5205 14.8567 9.67808C14.308 8.02991 14.0154 7.15089 13.2838 5.46609C12.5522 3.78129 11.8572 2.79239 10.8695 1.65698C9.84526 0.521576 8.60155 -0.0278134 7.24809 0.00881214C5.67515 0.00881214 4.35827 0.668081 3.33404 2.02324C3.29746 2.64588 3.15114 4.14755 2.93166 6.56487C2.71218 9.01881 2.52928 11.0699 2.34638 12.718C2.16348 14.4028 1.98058 16.2708 1.72452 18.2852C1.46846 20.3363 1.2124 21.9112 0.99292 22.9733C1.3953 24.4017 2.60244 25.061 4.61433 24.9878Z" fill="white"/>
</svg>
