<svg width="29" height="29" viewBox="0 0 29 29" fill="none" xmlns="http://www.w3.org/2000/svg">
    <circle cx="14.3836" cy="14.3836" r="13.5397" stroke="white" stroke-width="1.68767"/>
    <path d="M15.0601 18.6274C15.2144 18.6274 15.3477 18.6835 15.4599 18.7957C15.5722 18.9079 15.6283 19.0412 15.6283 19.1955V21.0472C15.6283 21.2015 15.5722 21.3348 15.4599 21.447C15.3477 21.5592 15.2144 21.6154 15.0601 21.6154H13.2505C13.0962 21.6154 12.9629 21.5592 12.8507 21.447C12.7385 21.3348 12.6824 21.2015 12.6824 21.0472V19.1955C12.6824 19.0412 12.7385 18.9079 12.8507 18.7957C12.9629 18.6835 13.0962 18.6274 13.2505 18.6274H15.0601ZM14.2184 6.67542C14.8778 6.67542 15.516 6.7666 16.1333 6.94896C16.7645 7.13133 17.3187 7.40488 17.7956 7.76961C18.2866 8.12031 18.6794 8.5622 18.974 9.09526C19.2686 9.61431 19.4159 10.2175 19.4159 10.9049C19.4159 11.466 19.3247 11.957 19.1423 12.3778C18.974 12.7847 18.7495 13.1564 18.469 13.4931C18.2024 13.8157 17.9078 14.1173 17.5852 14.3979C17.2625 14.6644 16.9539 14.9239 16.6593 15.1765C16.3788 15.4149 16.1263 15.6674 15.9018 15.934C15.6914 16.2005 15.5651 16.4881 15.5231 16.7967C15.495 16.951 15.4319 17.0843 15.3337 17.1965C15.2355 17.3087 15.1092 17.3648 14.9549 17.3648H13.3557C13.2014 17.3648 13.0611 17.3087 12.9349 17.1965C12.8226 17.0843 12.7736 16.951 12.7876 16.7967C12.8156 16.2496 12.9279 15.7726 13.1243 15.3658C13.3347 14.945 13.5802 14.5732 13.8607 14.2506C14.1553 13.9139 14.4639 13.6123 14.7866 13.3458C15.1233 13.0792 15.4319 12.8267 15.7124 12.5883C15.993 12.3358 16.2245 12.0903 16.4068 11.8518C16.5892 11.5993 16.6804 11.3257 16.6804 11.0311C16.6804 10.4981 16.4559 10.0632 16.007 9.72653C15.5581 9.37583 14.9619 9.20048 14.2184 9.20048C13.0261 9.20048 12.1493 9.79667 11.5882 10.9891C11.518 11.1434 11.4409 11.2626 11.3567 11.3468C11.2866 11.4169 11.1603 11.452 10.978 11.452H9.27354C9.14728 11.452 9.03506 11.4099 8.93686 11.3257C8.85269 11.2416 8.81061 11.1293 8.81061 10.9891C8.82464 10.4981 8.97193 10.0001 9.25249 9.49507C9.54708 8.97603 9.93286 8.5131 10.4098 8.10628C10.9008 7.68544 11.4689 7.34175 12.1142 7.07522C12.7736 6.80868 13.475 6.67542 14.2184 6.67542Z" fill="white"/>
</svg>
