<svg id="Слой_1" data-name="Слой 1" xmlns="http://www.w3.org/2000/svg" viewBox="0 0 24.57 22.41"><defs><style>.cls-1{fill:#68a8de;stroke:#68a8de;stroke-miterlimit:10;}</style></defs><g id="_1" data-name=" 1"><path class="cls-1" d="M25.49,31.54a13,13,0,0,1-2.72-.31,20.1,20.1,0,0,1-8.91-4.81,17.52,17.52,0,0,1-5.3-8.1c-.78-2.93-.22-5.44,1.57-7.07l.51-.47a2.66,2.66,0,0,1,3.49,0l2.94,2.67a2.12,2.12,0,0,1,0,3.18L15.34,18.2a18.57,18.57,0,0,0,3.3,3.87,20.09,20.09,0,0,0,4.25,3l1.74-1.58a2.66,2.66,0,0,1,3.49,0h0l2.94,2.67a2.12,2.12,0,0,1,0,3.18l-.51.46A7.33,7.33,0,0,1,25.49,31.54ZM12.39,11.72a.78.78,0,0,0-.51.19l-.51.47c-1.34,1.22-1.73,3.19-1.1,5.56a15.88,15.88,0,0,0,4.83,7.35,18.18,18.18,0,0,0,8.08,4.38c2.61.58,4.78.22,6.13-1l.51-.46a.62.62,0,0,0,0-.92l-2.94-2.67a.77.77,0,0,0-1,0l-2.2,2a.93.93,0,0,1-1,.15,21.85,21.85,0,0,1-5.26-3.57,19.87,19.87,0,0,1-3.92-4.77.74.74,0,0,1,.16-.93l2.2-2a.62.62,0,0,0,0-.92l-2.94-2.67A.76.76,0,0,0,12.39,11.72Z" transform="translate(-7.72 -9.63)"/><path class="cls-1" d="M26.43,21.94a.84.84,0,0,1-.88-.8h0a5.58,5.58,0,0,0-5.82-5.29.8.8,0,1,1,0-1.6h0c4.18,0,7.58,3.09,7.58,6.89a.85.85,0,0,1-.88.8Z" transform="translate(-7.72 -9.63)"/><path class="cls-1" d="M30.14,21.94a.85.85,0,0,1-.88-.8h0c0-4.78-4.28-8.67-9.53-8.67a.8.8,0,1,1,0-1.59h0C26,10.88,31,15.48,31,21.14a.84.84,0,0,1-.88.8Z" transform="translate(-7.72 -9.63)"/></g></svg>