<svg id="Layer_1" data-name="Layer 1" xmlns="http://www.w3.org/2000/svg" viewBox="0 0 19.57 20.02" width="20" height="21"><defs><style>.cls-1{fill:#2f5d95;}.cls-2{fill:none;stroke:#fff;stroke-linecap:round;stroke-linejoin:round;stroke-width:2px;}</style></defs><path class="cls-1" d="M10.82.43l.49.77a1,1,0,0,0,1.32.3L13.42,1a1,1,0,0,1,1.47.7l.11.91a1,1,0,0,0,1.06.85L17,3.4a1,1,0,0,1,1,1.27l-.29.87a1,1,0,0,0,.59,1.22l.86.32a1,1,0,0,1,.36,1.59l-.64.65a1,1,0,0,0,0,1.36l.64.65a1,1,0,0,1-.36,1.59l-.86.32a1,1,0,0,0-.59,1.22l.29.87a1,1,0,0,1-1,1.27l-.91-.09a1,1,0,0,0-1.06.85l-.11.91a1,1,0,0,1-1.47.7l-.79-.47a1,1,0,0,0-1.32.3l-.49.77a1,1,0,0,1-1.64,0l-.49-.77a1,1,0,0,0-1.32-.3L6.58,19a1,1,0,0,1-1.47-.7L5,17.36a1,1,0,0,0-1.06-.85L3,16.6a1,1,0,0,1-1-1.27l.29-.87a1,1,0,0,0-.59-1.22l-.86-.32a1,1,0,0,1-.36-1.59l.64-.65a1,1,0,0,0,0-1.36L.49,8.67A1,1,0,0,1,.85,7.08l.86-.32A1,1,0,0,0,2.3,5.54L2,4.67A1,1,0,0,1,3,3.4l.91.09A1,1,0,0,0,5,2.64l.11-.91A1,1,0,0,1,6.58,1l.79.47a1,1,0,0,0,1.32-.3L9.18.43A1,1,0,0,1,10.82.43Z" transform="translate(-0.22 0.01)"/><polyline class="cls-2" points="6.23 9.69 8.85 11.97 13.34 8.05"/></svg>