<svg width="20" height="20" fill="none" xmlns="http://www.w3.org/2000/svg"><path fill-rule="evenodd" clip-rule="evenodd" d="M10 4.759L8.706 7.348A2.014 2.014 0 017.189 8.44l-2.86.41 2.06 1.984c.477.46.699 1.127.585 1.784l-.489 2.818 2.583-1.341a2.025 2.025 0 011.865 0l2.582 1.34-.49-2.817a2.002 2.002 0 01.586-1.784l2.06-1.983-2.86-.41a2.016 2.016 0 01-1.518-1.093L10 4.759zm-.688-1.42l-1.724 3.45a.766.766 0 01-.577.414l-3.854.553a.755.755 0 00-.425 1.292l2.79 2.686c.18.174.263.425.22.67l-.658 3.793c-.107.617.55 1.09 1.112.798l3.448-1.791a.775.775 0 01.713 0l3.447 1.79c.56.292 1.219-.178 1.111-.797l-.658-3.793a.752.752 0 01.22-.67l2.79-2.686a.755.755 0 00-.424-1.292l-3.854-.553a.766.766 0 01-.578-.414l-1.723-3.45a.771.771 0 00-1.376 0zm7.089 4.808z" fill="#333"/></svg>